<svg id="yourSvgContainerId" fill="#FFFFFF" height="18px" width="18px" version="1.1" id="Capa_1" xmlns="http://www.w3.org/2000/svg" xmlns:xlink="http://www.w3.org/1999/xlink" viewBox="0 0 329.899 329.899" xml:space="preserve" stroke="#000000">
    <g id="SVGRepo_bgCarrier" stroke-width="0"></g>
    <g id="SVGRepo_tracerCarrier" stroke-linecap="round" stroke-linejoin="round"></g>
    <g id="SVGRepo_iconCarrier">
        <g>
            <path d="M260.086,0H69.846C54.368,0,41.788,12.58,41.788,28.04v287.428c0,4.78,2.366,9.235,6.308,11.926s8.965,3.255,13.417,1.495 l103.441-40.875l103.454,40.875c1.699,0.679,3.501,1.003,5.29,1.003c2.847,0,5.687-0.841,8.101-2.492 c3.957-2.684,6.312-7.146,6.312-11.919V28.04C288.123,12.58,275.543,0,260.086,0z M213.033,158.674l-25.137,18.264l9.596,29.556 c0.643,1.981-0.06,4.155-1.741,5.374c-0.853,0.606-1.837,0.919-2.822,0.919c-0.991,0-1.981-0.312-2.834-0.919l-25.134-18.261 l-25.136,18.261c-1.684,1.219-3.966,1.219-5.645,0c-1.678-1.219-2.405-3.387-1.753-5.374l9.61-29.556l-25.142-18.264 c-1.684-1.225-2.387-3.39-1.748-5.374c0.64-1.981,2.486-3.327,4.576-3.327h31.068l9.611-29.54c1.273-3.966,7.842-3.966,9.139,0 l9.599,29.54h31.075c2.084,0,3.921,1.346,4.569,3.327C215.423,155.278,214.714,157.449,213.033,158.674z"></path>
        </g>
    </g>
</svg>
